# xmcd
#
# Track frame offsets:
#	150
#	28392
#	62755
#	82897
#	97392
#	135517
#	159157
#	181685
#
# Disc length: 2746 seconds
#
# Revision: 1
# Processed by: cddbd v1.5.1PL0 Copyright (c) Steve Scherf et al.
# Submitted via: audiograbber 1.83.01
#
DISCID=600ab808
DTITLE=Victory In Praise - Never Shall Forget
DYEAR=1991
DGENRE=Gospel
TTITLE0=Never Shall Forget
TTITLE1=Sing a New Song
TTITLE2=He Shall Hide Me
TTITLE3=He Will Make a Way
TTITLE4=All Things In Jesus
TTITLE5=Victory In Praise
TTITLE6=More Love To Thee
TTITLE7=Call Him Up
EXTD=
EXTT0=
EXTT1=
EXTT2=
EXTT3=
EXTT4=
EXTT5=
EXTT6=
EXTT7=
PLAYORDER=
